<svg width="574" height="574" viewBox="0 0 574 574" fill="none" xmlns="http://www.w3.org/2000/svg">
<path d="M386.43 228.573H516.463C528.749 228.573 538.708 238.513 538.708 250.775V368.996C538.708 414.062 502.106 450.595 456.955 450.595H456.569C411.419 450.601 374.811 414.073 374.805 369.008V240.176C374.805 233.768 380.01 228.573 386.43 228.573Z" fill="#5059C9"/>
<path d="M474.317 205.203C503.413 205.203 527 181.66 527 152.618C527 123.577 503.413 100.034 474.317 100.034C445.221 100.034 421.634 123.577 421.634 152.618C421.634 181.66 445.221 205.203 474.317 205.203Z" fill="#5059C9"/>
<path d="M310.415 205.202C352.442 205.202 386.512 171.195 386.512 129.247C386.512 87.2981 352.442 53.2919 310.415 53.2919C268.387 53.2919 234.317 87.2981 234.317 129.247C234.317 171.195 268.387 205.202 310.415 205.202Z" fill="#7B83EB"/>
<path d="M411.882 228.573H197.24C185.102 228.872 175.499 238.927 175.781 251.044V385.881C174.086 458.591 231.717 518.928 304.561 520.707C377.405 518.928 435.036 458.591 433.342 385.881V251.044C433.623 238.927 424.02 228.872 411.882 228.573Z" fill="#7B83EB"/>
<path opacity="0.1" d="M316.268 228.573V417.526C316.21 426.191 310.95 433.975 302.922 437.274C300.366 438.352 297.619 438.909 294.844 438.91H186.083C184.561 435.054 183.156 431.197 181.985 427.225C177.887 413.816 175.796 399.877 175.78 385.858V251.009C175.499 238.912 185.086 228.872 197.205 228.573H316.268Z" fill="black"/>
<path opacity="0.2" d="M304.561 228.573V429.211C304.561 431.981 304.003 434.722 302.922 437.274C299.617 445.287 291.818 450.537 283.137 450.595H191.585C189.595 446.739 187.722 442.883 186.083 438.91C184.444 434.937 183.156 431.197 181.985 427.225C177.887 413.816 175.796 399.877 175.78 385.858V251.009C175.499 238.912 185.086 228.872 197.205 228.573H304.561Z" fill="black"/>
<path opacity="0.2" d="M304.561 228.573V405.84C304.471 417.613 294.931 427.135 283.137 427.225H181.985C177.887 413.816 175.796 399.877 175.78 385.858V251.009C175.499 238.912 185.086 228.872 197.205 228.573H304.561Z" fill="black"/>
<path opacity="0.2" d="M292.853 228.573V405.84C292.764 417.613 283.224 427.135 271.429 427.225H181.985C177.887 413.816 175.796 399.877 175.78 385.858V251.009C175.499 238.912 185.086 228.872 197.205 228.573H292.853Z" fill="black"/>
<path opacity="0.1" d="M316.269 168.16V204.969C314.278 205.085 312.405 205.202 310.415 205.202C308.424 205.202 306.552 205.085 304.561 204.969C300.61 204.706 296.69 204.081 292.854 203.098C269.147 197.495 249.561 180.9 240.171 158.46C238.555 154.692 237.302 150.78 236.424 146.775H294.844C306.658 146.82 316.224 156.368 316.269 168.16Z" fill="black"/>
<path opacity="0.2" d="M304.561 179.846V204.969C300.61 204.707 296.69 204.082 292.854 203.099C269.147 197.495 249.56 180.901 240.171 158.461H283.137C294.951 158.506 304.516 168.054 304.561 179.846Z" fill="black"/>
<path opacity="0.2" d="M304.561 179.846V204.969C300.61 204.707 296.69 204.082 292.854 203.099C269.147 197.495 249.56 180.901 240.171 158.461H283.137C294.951 158.506 304.516 168.054 304.561 179.846Z" fill="black"/>
<path opacity="0.2" d="M292.854 179.845V203.098C269.147 197.495 249.56 180.9 240.171 158.46H271.43C283.244 158.505 292.809 168.053 292.854 179.845Z" fill="black"/>
<path d="M56.7518 158.46H271.394C283.245 158.46 292.853 168.05 292.853 179.88V394.119C292.853 405.949 283.245 415.539 271.394 415.539H56.7518C44.9 415.539 35.2924 405.949 35.2924 394.119V179.88C35.2924 168.05 44.9003 158.46 56.7518 158.46Z" fill="url(#paint0_linear)"/>
<path d="M220.55 240.001H177.643V356.622H150.306V240.001H107.598V217.378H220.55V240.001Z" fill="white"/>
<defs>
<linearGradient id="paint0_linear" x1="80.0359" y1="141.724" x2="247.637" y2="432.547" gradientUnits="userSpaceOnUse">
<stop stop-color="#5A62C3"/>
<stop offset="0.5" stop-color="#4D55BD"/>
<stop offset="1" stop-color="#3940AB"/>
</linearGradient>
</defs>
</svg>
